<?xml version="1.0" standalone="no"?><!DOCTYPE svg PUBLIC "-//W3C//DTD SVG 1.1//EN" "http://www.w3.org/Graphics/SVG/1.1/DTD/svg11.dtd"><svg t="1685071400036" class="icon" viewBox="0 0 1024 1024" version="1.1" xmlns="http://www.w3.org/2000/svg" p-id="3070" xmlns:xlink="http://www.w3.org/1999/xlink" width="200" height="200"><path d="M559.627907 0h381.023256v47.627907h47.627907v214.325581H750.139535v47.627907h142.883721v47.627907H702.511628v95.255814h95.255814v95.255814h-47.627907v-47.627907h-47.627907v166.697675h-47.627907v71.44186h-47.627907v47.627907h-47.627907v47.627907H226.232558v-47.627907h-47.627907v-47.627907h-47.627907v-47.627907H83.348837v-47.627907H35.72093V357.209302h47.627907v95.255814h47.627907v47.627907h47.627907v47.627907h95.255814v-47.627907h47.627907v-47.627907h71.441861v-47.627907h71.44186v-47.627907h47.627907V47.627907h47.627907V0z m47.627907 71.44186v47.627907h47.627907V71.44186h-47.627907zM464.372093 833.488372v47.627907h47.627907v142.883721h95.255814v-47.627907h-47.627907V833.488372h-95.255814z m-190.511628 0h142.883721v47.627907h-47.627907v47.627907h-47.627907v47.627907h47.627907v47.627907h-95.255814V833.488372z" p-id="3071"></path></svg>